<svg width="1300" height="730" viewBox="0 0 1300 730" fill="none" xmlns="http://www.w3.org/2000/svg">
<rect width="1300" height="666" transform="translate(0 64)" fill="#F9FAFB"/>
<rect width="1300" height="64" fill="white"/>
<path d="M46.4 20.14C46.4 19.7865 46.1135 19.5 45.76 19.5H36.64C36.2865 19.5 36 19.7865 36 20.14V42.86C36 43.2135 36.2865 43.5 36.64 43.5H45.76C46.1135 43.5 46.4 43.2135 46.4 42.86V41.26C46.4 40.9065 46.1135 40.62 45.76 40.62H39.52C39.1665 40.62 38.88 40.3335 38.88 39.98V23.02C38.88 22.6665 39.1665 22.38 39.52 22.38H45.76C46.1135 22.38 46.4 22.0935 46.4 21.74V20.14Z" fill="#111827"/>
<path d="M49.6 41.26C49.6 40.9065 49.8865 40.62 50.24 40.62H56.48C56.8335 40.62 57.12 40.3335 57.12 39.98V23.02C57.12 22.6665 56.8335 22.38 56.48 22.38H50.24C49.8865 22.38 49.6 22.0935 49.6 21.74V20.14C49.6 19.7865 49.8865 19.5 50.24 19.5H59.36C59.7135 19.5 60 19.7865 60 20.14V42.86C60 43.2135 59.7135 43.5 59.36 43.5H50.24C49.8865 43.5 49.6 43.2135 49.6 42.86V41.26Z" fill="#111827"/>
<path fill-rule="evenodd" clip-rule="evenodd" d="M52.56 26.3C52.9135 26.3 53.2 26.5865 53.2 26.94V36.06C53.2 36.4135 52.9135 36.7 52.56 36.7H43.44C43.0865 36.7 42.8 36.4135 42.8 36.06V26.94C42.8 26.5865 43.0865 26.3 43.44 26.3H52.56ZM46 28.86C45.6465 28.86 45.36 29.1465 45.36 29.5V33.5C45.36 33.8535 45.6465 34.14 46 34.14H50C50.3535 34.14 50.64 33.8535 50.64 33.5V29.5C50.64 29.1465 50.3535 28.86 50 28.86H46Z" fill="#111827"/>
<path d="M73.4347 38.5V23.9545H76.0696V36.2912H82.4759V38.5H73.4347ZM89.4787 38.7131C88.3849 38.7131 87.4403 38.4858 86.6449 38.0312C85.8542 37.572 85.2457 36.9233 84.8196 36.0852C84.3935 35.2424 84.1804 34.2505 84.1804 33.1094C84.1804 31.9872 84.3935 31.0024 84.8196 30.1548C85.2505 29.3026 85.8518 28.6397 86.6236 28.1662C87.3954 27.688 88.3021 27.4489 89.3438 27.4489C90.0161 27.4489 90.6506 27.5578 91.2472 27.7756C91.8485 27.9886 92.3788 28.3201 92.8381 28.7699C93.3021 29.2197 93.6667 29.7926 93.9318 30.4886C94.197 31.1799 94.3295 32.0038 94.3295 32.9602V33.7486H85.3878V32.0156H91.8651C91.8603 31.5232 91.7538 31.0852 91.5455 30.7017C91.3371 30.3134 91.0459 30.008 90.6719 29.7855C90.3026 29.563 89.8717 29.4517 89.3793 29.4517C88.8537 29.4517 88.392 29.5795 87.9943 29.8352C87.5966 30.0862 87.2865 30.4176 87.0639 30.8295C86.8461 31.2367 86.7348 31.6842 86.7301 32.1719V33.6847C86.7301 34.3191 86.8461 34.8636 87.0781 35.3182C87.3101 35.768 87.6345 36.1136 88.0511 36.3551C88.4678 36.5919 88.9555 36.7102 89.5142 36.7102C89.8883 36.7102 90.2268 36.6581 90.5298 36.554C90.8329 36.4451 91.0956 36.2865 91.3182 36.0781C91.5407 35.8698 91.7088 35.6117 91.8224 35.304L94.223 35.5739C94.0715 36.2083 93.7827 36.7623 93.3565 37.2358C92.9351 37.7045 92.3954 38.0691 91.7372 38.3295C91.0791 38.5852 90.3262 38.7131 89.4787 38.7131ZM101.579 38.5V23.9545H107.034C108.151 23.9545 109.089 24.1487 109.846 24.5369C110.609 24.9252 111.184 25.4697 111.572 26.1705C111.965 26.8665 112.162 27.6785 112.162 28.6065C112.162 29.5393 111.963 30.349 111.565 31.0355C111.172 31.7173 110.592 32.2453 109.825 32.6193C109.058 32.9886 108.116 33.1733 106.998 33.1733H103.113V30.9858H106.643C107.297 30.9858 107.832 30.8958 108.248 30.7159C108.665 30.5312 108.973 30.2637 109.172 29.9134C109.375 29.5582 109.477 29.1226 109.477 28.6065C109.477 28.0904 109.375 27.6501 109.172 27.2855C108.968 26.9162 108.658 26.6368 108.241 26.4474C107.824 26.2533 107.287 26.1562 106.629 26.1562H104.214V38.5H101.579ZM109.093 31.9091L112.694 38.5H109.754L106.217 31.9091H109.093ZM119.076 38.7131C118.01 38.7131 117.087 38.4787 116.306 38.0099C115.525 37.5412 114.918 36.8854 114.488 36.0426C114.061 35.1998 113.848 34.215 113.848 33.0881C113.848 31.9612 114.061 30.974 114.488 30.1264C114.918 29.2789 115.525 28.6207 116.306 28.152C117.087 27.6832 118.01 27.4489 119.076 27.4489C120.141 27.4489 121.064 27.6832 121.846 28.152C122.627 28.6207 123.23 29.2789 123.657 30.1264C124.087 30.974 124.303 31.9612 124.303 33.0881C124.303 34.215 124.087 35.1998 123.657 36.0426C123.23 36.8854 122.627 37.5412 121.846 38.0099C121.064 38.4787 120.141 38.7131 119.076 38.7131ZM119.09 36.6534C119.667 36.6534 120.15 36.4948 120.539 36.1776C120.927 35.8556 121.216 35.4247 121.405 34.8849C121.599 34.3452 121.696 33.7438 121.696 33.081C121.696 32.4134 121.599 31.8097 121.405 31.2699C121.216 30.7254 120.927 30.2921 120.539 29.9702C120.15 29.6482 119.667 29.4872 119.09 29.4872C118.498 29.4872 118.006 29.6482 117.613 29.9702C117.224 30.2921 116.933 30.7254 116.739 31.2699C116.55 31.8097 116.455 32.4134 116.455 33.081C116.455 33.7438 116.55 34.3452 116.739 34.8849C116.933 35.4247 117.224 35.8556 117.613 36.1776C118.006 36.4948 118.498 36.6534 119.09 36.6534ZM126.485 38.5V27.5909H129.056V38.5H126.485ZM127.778 26.0426C127.371 26.0426 127.02 25.9077 126.727 25.6378C126.433 25.3632 126.286 25.0341 126.286 24.6506C126.286 24.2623 126.433 23.9332 126.727 23.6634C127.02 23.3887 127.371 23.2514 127.778 23.2514C128.19 23.2514 128.54 23.3887 128.829 23.6634C129.122 23.9332 129.269 24.2623 129.269 24.6506C129.269 25.0341 129.122 25.3632 128.829 25.6378C128.54 25.9077 128.19 26.0426 127.778 26.0426ZM140.709 38.6918C139.852 38.6918 139.085 38.4716 138.408 38.0312C137.731 37.5909 137.196 36.9517 136.803 36.1136C136.41 35.2756 136.213 34.2576 136.213 33.0597C136.213 31.8475 136.412 30.8248 136.81 29.9915C137.212 29.1534 137.755 28.5213 138.436 28.0952C139.118 27.6643 139.878 27.4489 140.716 27.4489C141.355 27.4489 141.881 27.5578 142.293 27.7756C142.705 27.9886 143.032 28.2467 143.273 28.5497C143.515 28.848 143.702 29.1297 143.834 29.3949H143.941V23.9545H146.519V38.5H143.99V36.7812H143.834C143.702 37.0464 143.51 37.3281 143.259 37.6264C143.008 37.92 142.676 38.1709 142.265 38.3793C141.853 38.5876 141.334 38.6918 140.709 38.6918ZM141.426 36.5824C141.971 36.5824 142.435 36.4356 142.819 36.142C143.202 35.8437 143.493 35.4295 143.692 34.8991C143.891 34.3688 143.99 33.7509 143.99 33.0455C143.99 32.34 143.891 31.7268 143.692 31.206C143.498 30.6851 143.209 30.2803 142.826 29.9915C142.447 29.7027 141.98 29.5582 141.426 29.5582C140.854 29.5582 140.375 29.7074 139.992 30.0057C139.608 30.304 139.319 30.7159 139.125 31.2415C138.931 31.767 138.834 32.3684 138.834 33.0455C138.834 33.7273 138.931 34.3357 139.125 34.8707C139.324 35.401 139.615 35.8201 139.999 36.1278C140.387 36.4309 140.863 36.5824 141.426 36.5824ZM154.088 38.7131C152.994 38.7131 152.05 38.4858 151.254 38.0312C150.464 37.572 149.855 36.9233 149.429 36.0852C149.003 35.2424 148.79 34.2505 148.79 33.1094C148.79 31.9872 149.003 31.0024 149.429 30.1548C149.86 29.3026 150.461 28.6397 151.233 28.1662C152.005 27.688 152.911 27.4489 153.953 27.4489C154.625 27.4489 155.26 27.5578 155.857 27.7756C156.458 27.9886 156.988 28.3201 157.447 28.7699C157.911 29.2197 158.276 29.7926 158.541 30.4886C158.806 31.1799 158.939 32.0038 158.939 32.9602V33.7486H149.997V32.0156H156.474C156.47 31.5232 156.363 31.0852 156.155 30.7017C155.946 30.3134 155.655 30.008 155.281 29.7855C154.912 29.563 154.481 29.4517 153.989 29.4517C153.463 29.4517 153.001 29.5795 152.604 29.8352C152.206 30.0862 151.896 30.4176 151.673 30.8295C151.455 31.2367 151.344 31.6842 151.339 32.1719V33.6847C151.339 34.3191 151.455 34.8636 151.688 35.3182C151.92 35.768 152.244 36.1136 152.661 36.3551C153.077 36.5919 153.565 36.7102 154.124 36.7102C154.498 36.7102 154.836 36.6581 155.139 36.554C155.442 36.4451 155.705 36.2865 155.928 36.0781C156.15 35.8698 156.318 35.6117 156.432 35.304L158.832 35.5739C158.681 36.2083 158.392 36.7623 157.966 37.2358C157.545 37.7045 157.005 38.0691 156.347 38.3295C155.688 38.5852 154.936 38.7131 154.088 38.7131ZM168.646 23.9545V38.5H166.075V23.9545H168.646ZM174.429 38.7202C173.738 38.7202 173.115 38.5971 172.561 38.3509C172.012 38.0999 171.576 37.7306 171.254 37.2429C170.937 36.7552 170.778 36.1539 170.778 35.4389C170.778 34.8234 170.892 34.3144 171.119 33.9119C171.347 33.5095 171.657 33.1875 172.05 32.946C172.443 32.7045 172.885 32.5223 173.378 32.3991C173.875 32.2713 174.389 32.179 174.919 32.1222C175.558 32.0559 176.077 31.9967 176.474 31.9446C176.872 31.8878 177.161 31.8026 177.341 31.6889C177.526 31.5705 177.618 31.3883 177.618 31.142V31.0994C177.618 30.5644 177.459 30.1501 177.142 29.8565C176.825 29.563 176.368 29.4162 175.771 29.4162C175.142 29.4162 174.642 29.5535 174.273 29.8281C173.908 30.1027 173.662 30.4271 173.534 30.8011L171.134 30.4602C171.323 29.7973 171.635 29.2434 172.071 28.7983C172.507 28.3485 173.039 28.0123 173.669 27.7898C174.299 27.5625 174.995 27.4489 175.757 27.4489C176.283 27.4489 176.806 27.5104 177.327 27.6335C177.848 27.7566 178.323 27.9602 178.754 28.2443C179.185 28.5237 179.531 28.9048 179.791 29.3878C180.056 29.8707 180.189 30.4744 180.189 31.1989V38.5H177.717V37.0014H177.632C177.476 37.3045 177.256 37.5885 176.972 37.8537C176.692 38.1141 176.339 38.3248 175.913 38.4858C175.492 38.642 174.997 38.7202 174.429 38.7202ZM175.097 36.831C175.613 36.831 176.06 36.7292 176.439 36.5256C176.818 36.3172 177.109 36.0426 177.312 35.7017C177.521 35.3608 177.625 34.9891 177.625 34.5866V33.3011C177.545 33.3674 177.407 33.429 177.213 33.4858C177.024 33.5426 176.811 33.5923 176.574 33.6349C176.337 33.6776 176.103 33.7154 175.871 33.7486C175.639 33.7817 175.438 33.8101 175.267 33.8338C174.884 33.8859 174.54 33.9711 174.237 34.0895C173.934 34.2079 173.695 34.3736 173.52 34.5866C173.345 34.795 173.257 35.0649 173.257 35.3963C173.257 35.8698 173.43 36.2273 173.776 36.4688C174.121 36.7102 174.562 36.831 175.097 36.831ZM197.593 28.5994C197.475 28.2159 197.311 27.8726 197.103 27.5696C196.899 27.2618 196.653 26.9991 196.364 26.7812C196.08 26.5634 195.754 26.4001 195.384 26.2912C195.015 26.1776 194.612 26.1207 194.177 26.1207C193.396 26.1207 192.7 26.3172 192.089 26.7102C191.478 27.1032 190.997 27.6809 190.647 28.4432C190.301 29.2008 190.129 30.1241 190.129 31.2131C190.129 32.3116 190.301 33.242 190.647 34.0043C190.993 34.7666 191.473 35.3466 192.089 35.7443C192.704 36.1373 193.419 36.3338 194.234 36.3338C194.972 36.3338 195.612 36.1918 196.151 35.9077C196.696 35.6236 197.115 35.2211 197.408 34.7003C197.702 34.1747 197.849 33.5592 197.849 32.8537L198.445 32.946H194.496V30.8864H200.398V32.6335C200.398 33.8788 200.133 34.956 199.603 35.8651C199.073 36.7741 198.344 37.4749 197.415 37.9673C196.487 38.455 195.422 38.6989 194.219 38.6989C192.879 38.6989 191.703 38.3982 190.69 37.7969C189.681 37.1908 188.893 36.3314 188.325 35.2188C187.761 34.1013 187.479 32.7756 187.479 31.2415C187.479 30.0672 187.645 29.0185 187.977 28.0952C188.313 27.1719 188.781 26.3883 189.383 25.7443C189.984 25.0956 190.69 24.6032 191.499 24.267C192.309 23.9261 193.19 23.7557 194.141 23.7557C194.946 23.7557 195.697 23.8741 196.393 24.1108C197.089 24.3428 197.707 24.6742 198.246 25.1051C198.791 25.536 199.238 26.0473 199.589 26.6392C199.939 27.2311 200.169 27.8845 200.278 28.5994H197.593ZM205.404 23.9545V38.5H202.833V23.9545H205.404ZM208.048 38.5V27.5909H210.619V38.5H208.048ZM209.34 26.0426C208.933 26.0426 208.583 25.9077 208.289 25.6378C207.996 25.3632 207.849 25.0341 207.849 24.6506C207.849 24.2623 207.996 23.9332 208.289 23.6634C208.583 23.3887 208.933 23.2514 209.34 23.2514C209.752 23.2514 210.103 23.3887 210.391 23.6634C210.685 23.9332 210.832 24.2623 210.832 24.6506C210.832 25.0341 210.685 25.3632 210.391 25.6378C210.103 25.9077 209.752 26.0426 209.34 26.0426ZM221.885 30.4744L219.541 30.7301C219.475 30.4934 219.359 30.2708 219.193 30.0625C219.032 29.8542 218.814 29.6861 218.539 29.5582C218.265 29.4304 217.929 29.3665 217.531 29.3665C216.996 29.3665 216.546 29.4825 216.181 29.7145C215.822 29.9465 215.644 30.2472 215.649 30.6165C215.644 30.9337 215.76 31.1918 215.997 31.3906C216.238 31.5895 216.636 31.7528 217.19 31.8807L219.051 32.2784C220.083 32.5009 220.85 32.8537 221.352 33.3366C221.859 33.8196 222.114 34.4517 222.119 35.233C222.114 35.9195 221.913 36.5256 221.515 37.0511C221.122 37.572 220.575 37.9792 219.875 38.2727C219.174 38.5663 218.369 38.7131 217.46 38.7131C216.125 38.7131 215.05 38.4337 214.235 37.875C213.421 37.3116 212.936 36.5279 212.779 35.5241L215.287 35.2827C215.4 35.7751 215.642 36.1468 216.011 36.3977C216.38 36.6487 216.861 36.7741 217.453 36.7741C218.064 36.7741 218.554 36.6487 218.923 36.3977C219.297 36.1468 219.484 35.8366 219.484 35.4673C219.484 35.1548 219.363 34.8968 219.122 34.6932C218.885 34.4896 218.516 34.3333 218.014 34.2244L216.153 33.8338C215.107 33.616 214.333 33.2491 213.831 32.733C213.329 32.2121 213.08 31.554 213.085 30.7585C213.08 30.0862 213.262 29.5038 213.632 29.0114C214.006 28.5142 214.524 28.1307 215.187 27.8608C215.855 27.5862 216.624 27.4489 217.495 27.4489C218.774 27.4489 219.78 27.7211 220.514 28.2656C221.252 28.8101 221.709 29.5464 221.885 30.4744ZM232.861 30.4744L230.517 30.7301C230.451 30.4934 230.335 30.2708 230.169 30.0625C230.008 29.8542 229.791 29.6861 229.516 29.5582C229.241 29.4304 228.905 29.3665 228.507 29.3665C227.972 29.3665 227.523 29.4825 227.158 29.7145C226.798 29.9465 226.621 30.2472 226.625 30.6165C226.621 30.9337 226.737 31.1918 226.973 31.3906C227.215 31.5895 227.613 31.7528 228.167 31.8807L230.027 32.2784C231.06 32.5009 231.827 32.8537 232.328 33.3366C232.835 33.8196 233.091 34.4517 233.096 35.233C233.091 35.9195 232.89 36.5256 232.492 37.0511C232.099 37.572 231.552 37.9792 230.851 38.2727C230.15 38.5663 229.346 38.7131 228.436 38.7131C227.101 38.7131 226.026 38.4337 225.212 37.875C224.398 37.3116 223.912 36.5279 223.756 35.5241L226.263 35.2827C226.377 35.7751 226.618 36.1468 226.988 36.3977C227.357 36.6487 227.837 36.7741 228.429 36.7741C229.04 36.7741 229.53 36.6487 229.9 36.3977C230.274 36.1468 230.461 35.8366 230.461 35.4673C230.461 35.1548 230.34 34.8968 230.098 34.6932C229.862 34.4896 229.492 34.3333 228.99 34.2244L227.13 33.8338C226.083 33.616 225.309 33.2491 224.807 32.733C224.305 32.2121 224.057 31.554 224.061 30.7585C224.057 30.0862 224.239 29.5038 224.608 29.0114C224.982 28.5142 225.501 28.1307 226.164 27.8608C226.831 27.5862 227.601 27.4489 228.472 27.4489C229.75 27.4489 230.757 27.7211 231.49 28.2656C232.229 28.8101 232.686 29.5464 232.861 30.4744ZM240.045 38.7131C238.951 38.7131 238.007 38.4858 237.211 38.0312C236.421 37.572 235.812 36.9233 235.386 36.0852C234.96 35.2424 234.747 34.2505 234.747 33.1094C234.747 31.9872 234.96 31.0024 235.386 30.1548C235.817 29.3026 236.418 28.6397 237.19 28.1662C237.962 27.688 238.868 27.4489 239.91 27.4489C240.583 27.4489 241.217 27.5578 241.814 27.7756C242.415 27.9886 242.945 28.3201 243.404 28.7699C243.868 29.2197 244.233 29.7926 244.498 30.4886C244.763 31.1799 244.896 32.0038 244.896 32.9602V33.7486H235.954V32.0156H242.431C242.427 31.5232 242.32 31.0852 242.112 30.7017C241.904 30.3134 241.612 30.008 241.238 29.7855C240.869 29.563 240.438 29.4517 239.946 29.4517C239.42 29.4517 238.958 29.5795 238.561 29.8352C238.163 30.0862 237.853 30.4176 237.63 30.8295C237.413 31.2367 237.301 31.6842 237.297 32.1719V33.6847C237.297 34.3191 237.413 34.8636 237.645 35.3182C237.877 35.768 238.201 36.1136 238.618 36.3551C239.034 36.5919 239.522 36.7102 240.081 36.7102C240.455 36.7102 240.793 36.6581 241.096 36.554C241.399 36.4451 241.662 36.2865 241.885 36.0781C242.107 35.8698 242.275 35.6117 242.389 35.304L244.789 35.5739C244.638 36.2083 244.349 36.7623 243.923 37.2358C243.502 37.7045 242.962 38.0691 242.304 38.3295C241.645 38.5852 240.893 38.7131 240.045 38.7131Z" fill="#111827"/>
<rect y="63" width="1300" height="1" fill="#E5E7EB"/>
</svg>
